<svg xmlns="http://www.w3.org/2000/svg" width="1200" height="540" viewBox="0 0 1200 540" role="img" aria-label="RutaLiquidador system architecture" font-family="-apple-system, BlinkMacSystemFont, 'Segoe UI', Helvetica, Arial, sans-serif">
<title>RutaLiquidador system architecture</title>
<rect x="0.5" y="0.5" width="1199" height="539" rx="6" fill="#f6f8fa" stroke="#d0d7de"/>
<defs><marker id="arrow" viewBox="0 0 10 10" refX="8" refY="5" markerWidth="8" markerHeight="8" orient="auto"><path d="M0,0 L10,5 L0,10 z" fill="#2a78d6"/></marker></defs>
<text x="40" y="58" font-size="11" letter-spacing="1.6" fill="#6e7781">DATA SOURCES</text>
<text x="380" y="58" font-size="11" letter-spacing="1.6" fill="#6e7781">PLATFORM CORE</text>
<text x="900" y="58" font-size="11" letter-spacing="1.6" fill="#6e7781">CLIENTS</text>
<rect x="40" y="84" width="260" height="100" rx="6" fill="#ffffff" stroke="#d0d7de"/><text x="58" y="116" font-size="16" font-weight="600" fill="#1f2328">ERP · SQL Server</text><text x="58" y="142" font-size="13" fill="#59636e">Dispatch, invoices, promotions</text><text x="58" y="164" font-size="13" fill="#6e7781">Read-only synchronization</text>
<line x1="300" y1="134.0" x2="376" y2="134.0" stroke="#2a78d6" stroke-width="1.6" marker-end="url(#arrow)"/>
<rect x="40" y="206" width="260" height="100" rx="6" fill="#ffffff" stroke="#d0d7de"/><text x="58" y="238" font-size="16" font-weight="600" fill="#1f2328">Fleet GPS tracker</text><text x="58" y="264" font-size="13" fill="#59636e">Live truck positions</text><text x="58" y="286" font-size="13" fill="#6e7781">Isolated, token-hiding proxy</text>
<line x1="300" y1="256.0" x2="376" y2="256.0" stroke="#2a78d6" stroke-width="1.6" marker-end="url(#arrow)"/>
<rect x="40" y="328" width="260" height="100" rx="6" fill="#ffffff" stroke="#d0d7de"/><text x="58" y="360" font-size="16" font-weight="600" fill="#1f2328">OSRM and map tiles</text><text x="58" y="386" font-size="13" fill="#59636e">Road routing for Lima</text><text x="58" y="408" font-size="13" fill="#6e7781">Self-hosted tile server</text>
<line x1="300" y1="378.0" x2="376" y2="378.0" stroke="#2a78d6" stroke-width="1.6" marker-end="url(#arrow)"/>
<rect x="900" y="84" width="260" height="100" rx="6" fill="#ffffff" stroke="#d0d7de"/><text x="918" y="116" font-size="16" font-weight="600" fill="#1f2328">Driver app</text><text x="918" y="142" font-size="13" fill="#59636e">Expo · React Native</text><text x="918" y="164" font-size="13" fill="#6e7781">Offline-first · GPS · AES-256</text>
<line x1="820" y1="134.0" x2="896" y2="134.0" stroke="#2a78d6" stroke-width="1.6" marker-end="url(#arrow)"/>
<rect x="900" y="206" width="260" height="100" rx="6" fill="#ffffff" stroke="#d0d7de"/><text x="918" y="238" font-size="16" font-weight="600" fill="#1f2328">Control tower</text><text x="918" y="264" font-size="13" fill="#59636e">React · TypeScript · Vite</text><text x="918" y="286" font-size="13" fill="#6e7781">27 views · live fleet map</text>
<line x1="820" y1="256.0" x2="896" y2="256.0" stroke="#2a78d6" stroke-width="1.6" marker-end="url(#arrow)"/>
<rect x="900" y="328" width="260" height="100" rx="6" fill="#ffffff" stroke="#d0d7de"/><text x="918" y="360" font-size="16" font-weight="600" fill="#1f2328">WhatsApp gateway</text><text x="918" y="386" font-size="13" fill="#59636e">Operational alerts</text><text x="918" y="408" font-size="13" fill="#6e7781">Rejections and partial deliveries</text>
<line x1="820" y1="378.0" x2="896" y2="378.0" stroke="#2a78d6" stroke-width="1.6" marker-end="url(#arrow)"/>
<rect x="380" y="84" width="440" height="344" rx="6" fill="#ffffff" stroke="#2a78d6" stroke-width="1.5"/><text x="402" y="120" font-size="18" font-weight="600" fill="#1f2328">FastAPI backend</text><text x="402" y="144" font-size="13" fill="#59636e">Python · SQLAlchemy async · Alembic · APScheduler</text>
<rect x="402" y="164" width="396" height="34" rx="4" fill="#f6f8fa" stroke="#d0d7de"/><text x="418" y="186" font-size="13" fill="#1f2328">Promotion identification engine · 14 cases</text>
<rect x="402" y="208" width="396" height="34" rx="4" fill="#f6f8fa" stroke="#d0d7de"/><text x="418" y="230" font-size="13" fill="#1f2328">Route settlement and multi-user delivery log</text>
<rect x="402" y="252" width="396" height="34" rx="4" fill="#f6f8fa" stroke="#d0d7de"/><text x="418" y="274" font-size="13" fill="#1f2328">Offline conflict resolution and audit trail</text>
<rect x="402" y="296" width="396" height="34" rx="4" fill="#f6f8fa" stroke="#d0d7de"/><text x="418" y="318" font-size="13" fill="#1f2328">Scheduler · 12 background jobs and alerts</text>
<rect x="402" y="346" width="396" height="40" rx="4" fill="#cde2fb" fill-opacity="0.45" stroke="#2a78d6"/><text x="418" y="372" font-size="14" font-weight="600" fill="#1f2328">PostgreSQL 16</text><text x="540" y="372" font-size="13" fill="#59636e">47 tables · 60 migrations · 13 GB</text>
<line x1="40" y1="454" x2="1160" y2="454" stroke="#d0d7de"/><text x="40" y="488" font-size="11" letter-spacing="1.6" fill="#6e7781">DELIVERY</text><text x="140" y="488" font-size="13" fill="#59636e">Docker Compose · Nginx · 6 GitHub Actions workflows · container images on GHCR · scripted deploy with backup, smoke test and rollback</text>
</svg>
