<svg xmlns="http://www.w3.org/2000/svg" width="1200" height="150" viewBox="0 0 1200 150" role="img" aria-label="Measured business impact" font-family="-apple-system, BlinkMacSystemFont, 'Segoe UI', Helvetica, Arial, sans-serif">
<title>Measured business impact</title>
<g transform="translate(0.0,0)">
<rect x="0.5" y="0.5" width="287.0" height="149" rx="6" fill="#f6f8fa" stroke="#d0d7de"/>
<text x="24" y="38" font-size="13" fill="#59636e">Order rejection rate</text>
<text x="24" y="92" font-size="38" font-weight="700" fill="#1f2328">7% → 1%</text>
<rect x="24" y="108" width="28" height="2" fill="#2a78d6"/>
<text x="24" y="130" font-size="12" fill="#6e7781">RutaLiquidador · Auren</text>
</g>
<g transform="translate(304.0,0)">
<rect x="0.5" y="0.5" width="287.0" height="149" rx="6" fill="#f6f8fa" stroke="#d0d7de"/>
<text x="24" y="38" font-size="13" fill="#59636e">Sales conversion</text>
<text x="24" y="92" font-size="38" font-weight="700" fill="#1f2328">+15%</text>
<rect x="24" y="108" width="28" height="2" fill="#2a78d6"/>
<text x="24" y="130" font-size="12" fill="#6e7781">Predictive analytics · UBYCALL</text>
</g>
<g transform="translate(608.0,0)">
<rect x="0.5" y="0.5" width="287.0" height="149" rx="6" fill="#f6f8fa" stroke="#d0d7de"/>
<text x="24" y="38" font-size="13" fill="#59636e">Credit default losses</text>
<text x="24" y="92" font-size="38" font-weight="700" fill="#1f2328">−18%</text>
<rect x="24" y="108" width="28" height="2" fill="#2a78d6"/>
<text x="24" y="130" font-size="12" fill="#6e7781">ML credit scoring · Alfin Banco</text>
</g>
<g transform="translate(912.0,0)">
<rect x="0.5" y="0.5" width="287.0" height="149" rx="6" fill="#f6f8fa" stroke="#d0d7de"/>
<text x="24" y="38" font-size="13" fill="#59636e">Manual reporting automated</text>
<text x="24" y="92" font-size="38" font-weight="700" fill="#1f2328">80%</text>
<rect x="24" y="108" width="28" height="2" fill="#2a78d6"/>
<text x="24" y="130" font-size="12" fill="#6e7781">Python and SQL · UBYCALL</text>
</g>
</svg>
